<svg width="241" height="118" viewBox="0 0 241 118" fill="none" xmlns="http://www.w3.org/2000/svg">
<g style="mix-blend-mode:hard-light">
<path d="M4.62004 102V116.63H0.449997V83.77H4.58V98.4H18.07V83.77H22.21V116.61H18.07V102H4.62004Z" fill="white"/>
<path d="M29.8 105.54V105.61C29.7736 106.647 29.9606 107.678 30.3494 108.64C30.7382 109.601 31.3204 110.473 32.06 111.2C32.7485 111.922 33.5776 112.494 34.496 112.883C35.4144 113.272 36.4027 113.468 37.3999 113.46C38.4044 113.462 39.3987 113.259 40.3219 112.863C41.2452 112.468 42.0781 111.888 42.7699 111.16C42.9833 110.94 43.3934 110.46 44 109.72L47.8801 111.09C47.3252 112.031 46.6532 112.898 45.8801 113.67C43.6408 115.893 40.6159 117.145 37.4603 117.155C34.3046 117.164 31.2723 115.93 29.0199 113.72C27.9344 112.663 27.0717 111.398 26.4826 110.002C25.8935 108.606 25.5899 107.106 25.5899 105.59C25.5899 104.075 25.8935 102.574 26.4826 101.178C27.0717 99.7817 27.9344 98.5175 29.0199 97.46C31.2657 95.2432 34.2944 94.0002 37.45 94.0002C40.6056 94.0002 43.6343 95.2432 45.8801 97.46C46.8926 98.523 47.6802 99.7795 48.1957 101.154C48.7112 102.529 48.944 103.993 48.8801 105.46L29.8 105.54ZM30.53 101.93H44.2C43.2333 99.0967 40.9666 97.6834 37.3999 97.69C33.8333 97.6967 31.5433 99.11 30.53 101.93Z" fill="white"/>
<path d="M74.7699 116.61H70.6399V113C69.9228 114.333 68.8421 115.436 67.5234 116.179C66.2046 116.923 64.7019 117.277 63.19 117.2C61.6319 117.232 60.0839 116.943 58.6423 116.351C57.2006 115.76 55.8961 114.878 54.81 113.76C53.7219 112.704 52.857 111.44 52.2663 110.044C51.6756 108.647 51.3713 107.146 51.3713 105.63C51.3713 104.114 51.6756 102.613 52.2663 101.216C52.857 99.8198 53.7219 98.5561 54.81 97.5C55.9 96.389 57.2057 95.5125 58.6468 94.9244C60.0878 94.3363 61.6338 94.0489 63.19 94.08C64.6956 94.0059 66.1919 94.3554 67.5088 95.089C68.8258 95.8226 69.9105 96.9108 70.6399 98.23V95.79H74.7699V116.61ZM70.6399 107.25V103.92C70.2838 102.193 69.3537 100.637 68.001 99.5063C66.6483 98.3751 64.9527 97.735 63.19 97.69C62.1911 97.6834 61.2016 97.8823 60.2829 98.2746C59.3642 98.6668 58.5361 99.2439 57.85 99.97C57.1114 100.708 56.5302 101.589 56.1418 102.558C55.7533 103.528 55.5656 104.566 55.59 105.61C55.566 106.647 55.7541 107.677 56.1427 108.638C56.5314 109.6 57.1124 110.471 57.85 111.2C58.5385 111.921 59.3675 112.494 60.2859 112.883C61.2044 113.272 62.1927 113.468 63.19 113.46C64.9535 113.429 66.6535 112.796 68.0083 111.667C69.3632 110.537 70.2916 108.979 70.6399 107.25Z" fill="white"/>
<path d="M83.45 83.77V116.61H79.32V83.77H83.45Z" fill="white"/>
<path d="M90.56 95.75V87.65H94.67V95.75H98.55V99.31H94.67V116.61H90.56V99.31H86.68V95.75H90.56Z" fill="white"/>
<path d="M101.45 83.77H105.58V95.77C106.28 95.01 107.72 94.63 109.92 94.63C111.089 94.5795 112.256 94.7681 113.35 95.1842C114.443 95.6003 115.44 96.2352 116.28 97.05C117.069 97.8179 117.694 98.7373 118.118 99.7529C118.543 100.768 118.758 101.859 118.75 102.96V116.63H114.64V103.12C114.658 102.465 114.54 101.814 114.292 101.208C114.044 100.602 113.672 100.054 113.2 99.6C112.776 99.1565 112.267 98.8029 111.704 98.5607C111.14 98.3184 110.533 98.1923 109.92 98.19C109.322 98.1871 108.729 98.3032 108.176 98.5315C107.624 98.7599 107.122 99.0959 106.7 99.52C106.234 99.951 105.853 100.467 105.58 101.04V116.61H101.45V83.77Z" fill="white"/>
<path d="M143.91 99.33C141.778 98.6921 139.828 97.5578 138.22 96.02C137.526 95.3506 136.977 94.5449 136.609 93.6535C136.241 92.7621 136.061 91.8043 136.08 90.84C136.078 89.8665 136.274 88.9028 136.655 88.0072C137.037 87.1117 137.597 86.3029 138.3 85.63C139.019 84.8946 139.883 84.3153 140.836 83.9282C141.789 83.5411 142.812 83.3545 143.84 83.38C144.879 83.3659 145.91 83.5624 146.87 83.9578C147.831 84.3531 148.702 84.9389 149.43 85.68C150.325 86.6224 150.977 87.7689 151.33 89.02L147.63 90.45C147.368 89.5854 146.951 88.7755 146.4 88.06C146.075 87.7039 145.68 87.4188 145.239 87.2226C144.799 87.0265 144.322 86.9234 143.84 86.92C143.367 86.9196 142.899 87.0171 142.465 87.2065C142.031 87.3958 141.641 87.6728 141.32 88.02C140.952 88.3895 140.664 88.8303 140.473 89.3152C140.283 89.8002 140.193 90.3191 140.21 90.84C140.199 91.3717 140.294 91.9003 140.49 92.3948C140.686 92.8894 140.978 93.3399 141.35 93.72C142.309 94.5912 143.403 95.3004 144.59 95.82C147.064 96.5852 149.319 97.929 151.17 99.74C152.124 100.664 152.883 101.77 153.402 102.994C153.92 104.217 154.187 105.532 154.187 106.86C154.187 108.188 153.92 109.503 153.402 110.726C152.883 111.95 152.124 113.056 151.17 113.98C149.193 115.917 146.531 116.996 143.764 116.981C140.996 116.966 138.346 115.859 136.39 113.9C134.765 112.248 133.738 110.101 133.47 107.8L137.47 106.36C137.512 108.282 138.219 110.13 139.47 111.59C140.03 112.176 140.704 112.64 141.45 112.955C142.197 113.27 143 113.428 143.81 113.42C144.636 113.425 145.453 113.26 146.212 112.935C146.971 112.61 147.655 112.131 148.22 111.53C149.419 110.279 150.089 108.613 150.089 106.88C150.089 105.147 149.419 103.481 148.22 102.23C146.98 100.999 145.517 100.015 143.91 99.33Z" fill="white"/>
<path d="M166.45 116.89C165.249 116.954 164.049 116.772 162.921 116.356C161.793 115.94 160.761 115.298 159.89 114.47C159.104 113.693 158.48 112.768 158.055 111.749C157.629 110.729 157.41 109.635 157.41 108.53V95.73H161.54V108.37C161.528 109.034 161.655 109.694 161.911 110.306C162.168 110.919 162.549 111.472 163.03 111.93C163.471 112.383 164 112.741 164.585 112.982C165.17 113.223 165.798 113.341 166.43 113.33C167.042 113.325 167.647 113.196 168.207 112.95C168.768 112.704 169.272 112.347 169.69 111.9C170.16 111.442 170.53 110.893 170.778 110.285C171.026 109.678 171.146 109.026 171.13 108.37V95.73H175.26V108.53C175.263 109.647 175.042 110.753 174.611 111.783C174.18 112.814 173.547 113.748 172.75 114.53C171.916 115.332 170.928 115.956 169.844 116.361C168.761 116.767 167.606 116.947 166.45 116.89Z" fill="white"/>
<path d="M184.11 89.8C184.369 90.0282 184.577 90.308 184.722 90.6214C184.867 90.9348 184.944 91.2749 184.95 91.62C184.947 91.9715 184.871 92.3185 184.727 92.6389C184.582 92.9592 184.372 93.2457 184.11 93.48C183.835 93.7476 183.51 93.9572 183.152 94.0963C182.795 94.2355 182.413 94.3013 182.03 94.29C181.639 94.3053 181.248 94.2414 180.882 94.1022C180.516 93.963 180.182 93.7514 179.9 93.48C179.644 93.242 179.439 92.9544 179.298 92.6345C179.157 92.3147 179.083 91.9695 179.08 91.62C179.086 91.2769 179.162 90.9386 179.303 90.6257C179.444 90.3128 179.647 90.0319 179.9 89.8C180.182 89.5287 180.516 89.317 180.882 89.1778C181.248 89.0387 181.639 88.9748 182.03 88.99C182.413 88.9787 182.795 89.0446 183.152 89.1837C183.51 89.3229 183.835 89.5325 184.11 89.8ZM184.06 95.75V116.61H179.95V95.75H184.06Z" fill="white"/>
<path d="M191.36 95.75V87.65H195.45V95.75H199.33V99.31H195.45V116.61H191.34V99.31H187.45V95.75H191.36Z" fill="white"/>
<path d="M205.45 105.54V105.61C205.424 106.647 205.611 107.678 205.999 108.64C206.388 109.601 206.97 110.473 207.71 111.2C208.399 111.922 209.228 112.494 210.146 112.883C211.064 113.272 212.053 113.468 213.05 113.46C214.054 113.462 215.049 113.259 215.972 112.863C216.895 112.468 217.728 111.888 218.42 111.16C218.633 110.94 219.043 110.46 219.65 109.72L223.53 111.09C222.975 112.031 222.303 112.898 221.53 113.67C219.291 115.893 216.266 117.145 213.11 117.155C209.955 117.164 206.922 115.93 204.67 113.72C203.584 112.663 202.722 111.398 202.133 110.002C201.544 108.606 201.24 107.106 201.24 105.59C201.24 104.075 201.544 102.574 202.133 101.178C202.722 99.7817 203.584 98.5175 204.67 97.46C206.916 95.2432 209.944 94.0002 213.1 94.0002C216.256 94.0002 219.284 95.2432 221.53 97.46C222.543 98.523 223.33 99.7795 223.846 101.154C224.361 102.529 224.594 103.993 224.53 105.46L205.45 105.54ZM206.18 101.93H219.85C218.883 99.0967 216.617 97.6834 213.05 97.69C209.483 97.6967 207.207 99.11 206.22 101.93H206.18Z" fill="white"/>
</g>
<g opacity="0.75">
<g opacity="0.25">
<path d="M234.29 25.16L212.46 6.65002L212.44 6.68002L234.27 25.19L234.29 25.16Z" fill="white"/>
<path d="M176.27 18.84H176.19L212.45 6.64001L234.29 25.16H234.34L176.27 18.84ZM176.36 18.84L234.22 25.18L212.45 6.68002L176.36 18.84Z" fill="white"/>
<path d="M213.84 73L176.27 18.79L234.27 25.15L213.84 73ZM213.84 73L234.27 25.23L176.33 18.88L213.84 73Z" fill="white"/>
<path d="M177.67 19.58C177.821 19.3043 177.887 18.99 177.859 18.6768C177.832 18.3636 177.712 18.0656 177.515 17.8206C177.318 17.5755 177.053 17.3942 176.753 17.2998C176.453 17.2054 176.132 17.202 175.83 17.29C175.528 17.378 175.259 17.5535 175.057 17.7944C174.855 18.0352 174.729 18.3306 174.695 18.6431C174.661 18.9556 174.72 19.2712 174.865 19.5502C175.01 19.8291 175.234 20.0587 175.51 20.21C175.693 20.312 175.894 20.3766 176.102 20.4C176.31 20.4235 176.521 20.4054 176.722 20.3468C176.923 20.2882 177.11 20.1902 177.273 20.0586C177.436 19.927 177.571 19.7643 177.67 19.58Z" fill="white"/>
<path d="M213.84 7.42001C213.989 7.14574 214.053 6.83348 214.025 6.52263C213.997 6.21177 213.877 5.91626 213.681 5.67337C213.485 5.43048 213.222 5.25109 212.924 5.15786C212.626 5.06462 212.307 5.06171 212.007 5.14948C211.708 5.23725 211.441 5.41178 211.241 5.65104C211.04 5.89031 210.915 6.18358 210.881 6.49386C210.847 6.80415 210.906 7.11754 211.05 7.39449C211.194 7.67144 211.417 7.89954 211.69 8.05002C211.872 8.15038 212.073 8.2137 212.28 8.23635C212.487 8.25899 212.696 8.24052 212.896 8.18197C213.096 8.12343 213.282 8.02597 213.444 7.89521C213.606 7.76444 213.741 7.60295 213.84 7.42001Z" fill="white"/>
<path d="M235.67 25.94C235.822 25.6642 235.889 25.3494 235.862 25.0356C235.835 24.7218 235.715 24.4231 235.518 24.1774C235.321 23.9317 235.055 23.7501 234.755 23.6555C234.455 23.5609 234.133 23.5577 233.831 23.6463C233.528 23.7349 233.259 23.9112 233.057 24.153C232.855 24.3947 232.73 24.691 232.697 25.0042C232.663 25.3174 232.724 25.6334 232.87 25.9122C233.017 26.191 233.243 26.4199 233.52 26.57C233.702 26.6704 233.903 26.7337 234.11 26.7563C234.317 26.779 234.526 26.7605 234.726 26.702C234.926 26.6434 235.112 26.546 235.274 26.4152C235.436 26.2844 235.571 26.123 235.67 25.94Z" fill="white"/>
<path d="M214.72 73.49C214.812 73.3165 214.851 73.1197 214.832 72.9242C214.812 72.7287 214.736 72.5432 214.612 72.3908C214.488 72.2385 214.322 72.126 214.135 72.0674C213.947 72.0088 213.747 72.0067 213.558 72.0614C213.369 72.1161 213.201 72.2251 213.074 72.3749C212.947 72.5246 212.867 72.7085 212.843 72.9035C212.82 73.0986 212.855 73.2961 212.943 73.4716C213.031 73.647 213.169 73.7925 213.34 73.89C213.456 73.9565 213.585 73.999 213.718 74.0149C213.851 74.0307 213.986 74.0197 214.115 73.9823C214.243 73.945 214.363 73.8822 214.467 73.7976C214.571 73.7131 214.657 73.6085 214.72 73.49Z" fill="white"/>
</g>
</g>
<g opacity="0.26">
<path d="M187.63 75L169.9 68.09L195.8 12.66L187.63 75ZM187.63 75L195.73 13.05L169.99 68.13L187.63 75Z" fill="white"/>
<path d="M195.72 12.78L169.88 68.08V68.14L154.5 20.84L195.72 12.78ZM195.72 12.84L154.62 20.84L169.91 68L195.72 12.84Z" fill="white"/>
<path d="M205.52 70.62L205.58 70.69L187.58 74.98L195.7 12.8V12.74L205.52 70.62ZM205.43 70.57L195.74 12.87L187.63 74.94L205.43 70.57Z" fill="white"/>
<path d="M196.89 12.56C196.894 12.7914 196.829 13.0187 196.704 13.2132C196.579 13.4078 196.399 13.5608 196.186 13.653C195.974 13.7452 195.739 13.7724 195.512 13.7311C195.284 13.6898 195.074 13.582 194.907 13.4212C194.741 13.2604 194.626 13.0539 194.577 12.8277C194.528 12.6016 194.547 12.366 194.632 12.1507C194.717 11.9355 194.863 11.7502 195.054 11.6184C195.244 11.4865 195.469 11.414 195.7 11.41C195.854 11.4074 196.006 11.435 196.149 11.4914C196.292 11.5477 196.423 11.6317 196.533 11.7385C196.644 11.8453 196.732 11.9728 196.793 12.1138C196.855 12.2547 196.887 12.4064 196.89 12.56Z" fill="white"/>
<path d="M156.39 20.79C156.398 21.1562 156.297 21.5165 156.1 21.8253C155.903 22.134 155.618 22.3773 155.283 22.5243C154.947 22.6713 154.576 22.7153 154.215 22.6509C153.855 22.5865 153.521 22.4165 153.257 22.1625C152.993 21.9084 152.811 21.5818 152.733 21.2239C152.655 20.866 152.685 20.493 152.819 20.1522C152.953 19.8113 153.185 19.518 153.486 19.3093C153.787 19.1007 154.144 18.986 154.51 18.98C154.999 18.972 155.471 19.1579 155.823 19.497C156.176 19.8362 156.379 20.3011 156.39 20.79Z" fill="white"/>
<path d="M171.63 68C171.636 68.3401 171.541 68.6743 171.357 68.9604C171.173 69.2465 170.908 69.4715 170.596 69.6072C170.284 69.7428 169.939 69.7828 169.604 69.7223C169.269 69.6618 168.96 69.5033 168.715 69.267C168.471 69.0307 168.302 68.7272 168.229 68.3947C168.157 68.0623 168.185 67.716 168.31 67.3995C168.435 67.083 168.65 66.8105 168.93 66.6166C169.209 66.4227 169.54 66.316 169.88 66.31C170.106 66.306 170.33 66.3466 170.541 66.4294C170.751 66.5122 170.943 66.6356 171.105 66.7925C171.268 66.9494 171.398 67.1369 171.488 67.344C171.578 67.5512 171.626 67.7741 171.63 68Z" fill="white"/>
<path d="M188.73 74.94C188.734 75.1635 188.671 75.383 188.551 75.571C188.43 75.759 188.256 75.9069 188.051 75.996C187.846 76.0852 187.619 76.1116 187.399 76.0718C187.179 76.0321 186.976 75.9281 186.815 75.7729C186.655 75.6177 186.543 75.4183 186.496 75.1999C186.448 74.9815 186.467 74.754 186.549 74.546C186.63 74.3381 186.772 74.159 186.956 74.0316C187.139 73.9041 187.357 73.834 187.58 73.83C187.728 73.8274 187.876 73.854 188.014 73.9083C188.152 73.9627 188.278 74.0437 188.385 74.1468C188.492 74.2499 188.577 74.373 188.636 74.5091C188.696 74.6452 188.727 74.7916 188.73 74.94Z" fill="white"/>
<path d="M207.76 70.83C207.778 71.2289 207.676 71.6241 207.468 71.9646C207.259 72.3051 206.953 72.5754 206.59 72.7407C206.226 72.9059 205.822 72.9586 205.428 72.8919C205.034 72.8252 204.67 72.6422 204.381 72.3664C204.092 72.0906 203.892 71.7347 203.808 71.3445C203.723 70.9543 203.757 70.5476 203.905 70.1769C204.054 69.8062 204.31 69.4883 204.64 69.2643C204.971 69.0403 205.361 68.9204 205.76 68.92C206.275 68.9195 206.771 69.1178 207.143 69.4736C207.516 69.8295 207.737 70.3153 207.76 70.83Z" fill="white"/>
</g>
<g opacity="0.75">
<path d="M212.042 26.48L201.843 39.4123L201.859 39.4247L212.058 26.4923L212.042 26.48Z" fill="#FBFEFF"/>
<path d="M239.87 37.18L211.93 26.39L232.52 2L239.87 37.18ZM239.87 37.18L232.52 2L211.97 26.4L239.87 37.18Z" fill="#FBFEFF"/>
<path d="M211.96 26.41L207.53 14.92L232.53 2.01001L211.96 26.41ZM232.45 2.05001L207.51 14.93L211.92 26.38" fill="#FBFEFF"/>
<path d="M209.5 59.88V59.93L201.75 39.33L211.95 26.39L209.5 59.88ZM209.5 59.88L211.96 26.48L201.78 39.39L209.5 59.88Z" fill="#FBFEFF"/>
<path d="M239.87 37.17L209.45 59.89L211.92 26.39L239.87 37.17ZM239.87 37.17L211.99 26.41L209.53 59.85L239.87 37.17Z" fill="#FBFEFF"/>
<path d="M209.9 59.07C209.739 58.9883 209.558 58.956 209.379 58.9774C209.2 58.9987 209.032 59.0726 208.895 59.1898C208.758 59.3071 208.659 59.4623 208.611 59.6358C208.562 59.8093 208.566 59.9933 208.622 60.1645C208.678 60.3357 208.784 60.4863 208.926 60.5974C209.068 60.7085 209.24 60.775 209.419 60.7884C209.599 60.8018 209.778 60.7617 209.935 60.6729C210.092 60.5842 210.219 60.4509 210.3 60.29C210.355 60.1838 210.388 60.0678 210.398 59.9487C210.407 59.8295 210.393 59.7097 210.356 59.5961C210.319 59.4826 210.259 59.3775 210.181 59.2872C210.103 59.1969 210.007 59.123 209.9 59.07Z" fill="#FBFEFF"/>
<path d="M202.16 38.52C202.054 38.4651 201.938 38.4319 201.819 38.4223C201.7 38.4127 201.58 38.427 201.466 38.4642C201.353 38.5014 201.248 38.5609 201.157 38.6392C201.067 38.7174 200.993 38.8129 200.94 38.92C200.858 39.0806 200.826 39.2618 200.847 39.4407C200.869 39.6196 200.943 39.7881 201.06 39.9249C201.177 40.0617 201.332 40.1607 201.506 40.2092C201.679 40.2578 201.863 40.2537 202.035 40.1976C202.206 40.1415 202.356 40.0358 202.468 39.8939C202.579 39.7521 202.645 39.5805 202.658 39.4008C202.672 39.2211 202.632 39.0415 202.543 38.8847C202.454 38.7279 202.321 38.601 202.16 38.52Z" fill="#FBFEFF"/>
<path d="M212.36 25.58C212.251 25.5138 212.13 25.4708 212.004 25.4539C211.878 25.4369 211.75 25.4463 211.627 25.4815C211.505 25.5166 211.391 25.5768 211.293 25.6582C211.195 25.7396 211.115 25.8404 211.058 25.9542C211.002 26.0681 210.969 26.1925 210.963 26.3196C210.956 26.4467 210.976 26.5738 211.021 26.6928C211.067 26.8118 211.136 26.92 211.225 27.0108C211.315 27.1015 211.422 27.1728 211.54 27.22C211.754 27.3056 211.993 27.3076 212.208 27.2255C212.424 27.1435 212.601 26.9834 212.704 26.7771C212.807 26.5707 212.829 26.3332 212.765 26.1114C212.702 25.8897 212.557 25.7 212.36 25.58Z" fill="#FBFEFF"/>
<path d="M233.05 1.00001C232.843 0.896013 232.61 0.855675 232.381 0.884105C232.151 0.912535 231.935 1.00846 231.76 1.15973C231.584 1.311 231.458 1.51083 231.396 1.73394C231.335 1.95704 231.341 2.1934 231.414 2.41311C231.486 2.63282 231.623 2.82602 231.805 2.96825C231.988 3.11048 232.209 3.19537 232.439 3.21216C232.67 3.22896 232.901 3.17692 233.102 3.06261C233.303 2.9483 233.466 2.77687 233.57 2.57001C233.709 2.29283 233.732 1.97178 233.635 1.67739C233.537 1.383 233.327 1.13936 233.05 1.00001Z" fill="#FBFEFF"/>
<path d="M239.87 37.77C240.196 37.77 240.46 37.5058 240.46 37.18C240.46 36.8541 240.196 36.59 239.87 36.59C239.544 36.59 239.28 36.8541 239.28 37.18C239.28 37.5058 239.544 37.77 239.87 37.77Z" fill="#FBFEFF"/>
<path d="M207.77 14.44C207.706 14.4074 207.637 14.3877 207.566 14.3821C207.494 14.3765 207.423 14.3851 207.355 14.4075C207.287 14.4298 207.224 14.4654 207.17 14.5122C207.116 14.559 207.072 14.616 207.04 14.68C206.979 14.8093 206.97 14.957 207.015 15.0927C207.06 15.2284 207.154 15.3419 207.28 15.41C207.344 15.4426 207.413 15.4623 207.484 15.4679C207.556 15.4735 207.627 15.4649 207.695 15.4425C207.763 15.4202 207.826 15.3846 207.88 15.3378C207.934 15.2911 207.978 15.234 208.01 15.17C208.043 15.1064 208.062 15.037 208.068 14.9657C208.073 14.8944 208.065 14.8228 208.043 14.7549C208.02 14.6869 207.985 14.6241 207.938 14.5701C207.891 14.5161 207.834 14.4718 207.77 14.44Z" fill="#FBFEFF"/>
<path d="M207.68 48.65L198.33 59.06L205.74 32.8L207.68 48.65ZM207.68 48.65L205.74 32.89L198.34 59L207.68 48.65Z" fill="#FBFEFF"/>
<path d="M213.07 41.74L207.67 48.66L205.67 32.81L213.07 41.74ZM213.07 41.74L205.76 32.86L207.7 48.62L213.07 41.74Z" fill="#FBFEFF"/>
<path d="M195.56 9.88L181.84 11.5V11.52L195.56 9.9V9.88Z" fill="#FBFEFF"/>
<path d="M205.73 32.85L195.56 9.85L222.25 7.59L205.73 32.85ZM205.73 32.85L222.22 7.66L195.58 9.92L205.73 32.85Z" fill="#FBFEFF"/>
<path d="M195.56 9.90002L199.75 0.450012L222.24 7.62002L195.56 9.90002ZM222.19 7.62002L199.75 0.470016L195.57 9.88001" fill="#FBFEFF"/>
<path d="M174.24 28.3L181.86 11.48L195.58 9.86002L174.24 28.3ZM174.24 28.3L195.51 9.94002L181.82 11.56L174.24 28.3Z" fill="#FBFEFF"/>
<path d="M198.33 59.07L174.22 28.29L205.74 32.85L198.33 59.07ZM198.33 59.07L205.72 32.88L174.26 28.33L198.33 59.07Z" fill="#FBFEFF"/>
<path d="M205.73 32.84L174.22 28.28L195.56 9.86002L205.73 32.84ZM205.73 32.84L195.55 9.90002L174.25 28.28L205.73 32.84Z" fill="#FBFEFF"/>
<path d="M174.96 28.05C174.908 27.9085 174.815 27.7854 174.694 27.696C174.573 27.6065 174.428 27.5547 174.277 27.547C174.126 27.5392 173.977 27.5759 173.847 27.6523C173.717 27.7288 173.612 27.8417 173.546 27.9772C173.48 28.1126 173.455 28.2645 173.474 28.414C173.493 28.5636 173.556 28.7042 173.654 28.8185C173.752 28.9327 173.882 29.0156 174.027 29.0567C174.172 29.0979 174.326 29.0955 174.47 29.05C174.569 29.0185 174.661 28.9673 174.74 28.8994C174.819 28.8315 174.883 28.7482 174.929 28.6548C174.975 28.5613 175.001 28.4595 175.006 28.3556C175.012 28.2516 174.996 28.1477 174.96 28.05Z" fill="#FBFEFF"/>
<path d="M182.56 11.27C182.529 11.1708 182.477 11.079 182.409 11.0001C182.341 10.9212 182.258 10.8569 182.165 10.8111C182.071 10.7653 181.97 10.739 181.866 10.7336C181.762 10.7283 181.658 10.744 181.56 10.78C181.419 10.8321 181.295 10.9246 181.206 11.046C181.117 11.1674 181.065 11.3124 181.057 11.463C181.049 11.6136 181.086 11.7631 181.162 11.8931C181.239 12.0231 181.352 12.1277 181.487 12.1941C181.623 12.2604 181.774 12.2855 181.924 12.2663C182.074 12.2471 182.214 12.1844 182.329 12.086C182.443 11.9876 182.526 11.8578 182.567 11.7128C182.608 11.5677 182.606 11.4137 182.56 11.27Z" fill="#FBFEFF"/>
<path d="M196.28 9.65002C196.226 9.51186 196.133 9.39241 196.013 9.30637C195.892 9.22032 195.749 9.17144 195.601 9.16573C195.453 9.16002 195.306 9.19773 195.179 9.27423C195.052 9.35073 194.951 9.46267 194.886 9.59628C194.822 9.72989 194.799 9.87935 194.818 10.0262C194.838 10.1731 194.9 10.311 194.997 10.423C195.094 10.535 195.222 10.6161 195.365 10.6565C195.507 10.6968 195.659 10.6946 195.8 10.65C195.898 10.6175 195.989 10.5656 196.067 10.4972C196.145 10.4288 196.208 10.3454 196.253 10.2521C196.297 10.1587 196.323 10.0573 196.328 9.95383C196.332 9.85039 196.316 9.74705 196.28 9.65002Z" fill="#FBFEFF"/>
<path d="M222.67 7.48003C222.631 7.36333 222.548 7.26669 222.439 7.21136C222.329 7.15604 222.202 7.14656 222.085 7.18502C221.968 7.22348 221.872 7.30672 221.816 7.41643C221.761 7.52614 221.751 7.65332 221.79 7.77002C221.829 7.88544 221.911 7.98123 222.019 8.03719C222.127 8.09316 222.253 8.10493 222.37 8.07002C222.429 8.05192 222.484 8.02211 222.531 7.98237C222.578 7.94263 222.617 7.89377 222.645 7.83871C222.673 7.78364 222.69 7.7235 222.694 7.66188C222.698 7.60025 222.69 7.53841 222.67 7.48003Z" fill="#FBFEFF"/>
<path d="M206.19 32.69C206.159 32.5981 206.102 32.5173 206.026 32.4579C205.949 32.3985 205.856 32.3632 205.76 32.3563C205.663 32.3495 205.567 32.3714 205.482 32.4194C205.398 32.4674 205.33 32.5393 205.287 32.626C205.244 32.7126 205.227 32.8102 205.239 32.9063C205.251 33.0025 205.292 33.0929 205.355 33.1661C205.418 33.2393 205.502 33.2921 205.596 33.3177C205.689 33.3433 205.788 33.3406 205.88 33.31C205.942 33.2908 205.999 33.2594 206.049 33.2175C206.098 33.1756 206.138 33.1241 206.167 33.0662C206.196 33.0082 206.213 32.945 206.217 32.8804C206.221 32.8158 206.212 32.751 206.19 32.69Z" fill="#FBFEFF"/>
<path d="M208.27 48.45C208.23 48.3321 208.156 48.2287 208.058 48.1527C207.959 48.0767 207.841 48.0316 207.717 48.023C207.593 48.0145 207.469 48.0428 207.361 48.1045C207.253 48.1662 207.165 48.2585 207.11 48.3698C207.054 48.4811 207.033 48.6063 207.048 48.7297C207.063 48.8532 207.115 48.9693 207.196 49.0634C207.278 49.1575 207.385 49.2255 207.505 49.2587C207.625 49.2919 207.752 49.2889 207.87 49.25C207.949 49.224 208.022 49.1826 208.085 49.1283C208.148 49.0739 208.199 49.0077 208.237 48.9333C208.274 48.8589 208.296 48.7779 208.302 48.695C208.307 48.612 208.297 48.5288 208.27 48.45Z" fill="#FBFEFF"/>
<path d="M213.61 41.56C213.561 41.4141 213.456 41.2937 213.318 41.2253C213.18 41.1568 213.021 41.146 212.875 41.195C212.729 41.2441 212.609 41.3491 212.54 41.4869C212.472 41.6248 212.461 41.7841 212.51 41.93C212.534 42.0022 212.573 42.069 212.623 42.1264C212.673 42.1838 212.734 42.2308 212.802 42.2647C212.87 42.2986 212.944 42.3187 213.02 42.3239C213.096 42.3291 213.173 42.3193 213.245 42.295C213.317 42.2707 213.384 42.2324 213.441 42.1824C213.499 42.1323 213.546 42.0714 213.58 42.0031C213.614 41.9349 213.634 41.8606 213.639 41.7846C213.644 41.7086 213.634 41.6322 213.61 41.56Z" fill="#FBFEFF"/>
<path d="M200.18 0.310002C200.151 0.223482 200.098 0.147381 200.026 0.0913515C199.954 0.0353221 199.867 0.00189306 199.777 -0.00471018C199.686 -0.0113134 199.595 0.00921051 199.516 0.054265C199.436 0.0993196 199.372 0.166871 199.332 0.248357C199.291 0.329843 199.275 0.421595 199.287 0.511975C199.298 0.602355 199.336 0.687294 199.396 0.756024C199.456 0.824754 199.535 0.874178 199.623 0.89803C199.711 0.921883 199.804 0.919089 199.89 0.890004C200.005 0.851218 200.1 0.76846 200.155 0.659795C200.209 0.55113 200.218 0.425381 200.18 0.310002Z" fill="#FBFEFF"/>
<path d="M199.28 59.5C199.401 59.2613 199.422 58.9844 199.338 58.7303C199.255 58.4762 199.074 58.2657 198.835 58.145C198.596 58.0243 198.319 58.0034 198.065 58.0869C197.811 58.1703 197.601 58.3513 197.48 58.59C197.419 58.7085 197.381 58.8381 197.371 58.9712C197.36 59.1043 197.376 59.2382 197.418 59.3649C197.46 59.4917 197.527 59.6087 197.615 59.7092C197.703 59.8097 197.81 59.8916 197.93 59.95C198.048 60.0099 198.177 60.0459 198.309 60.0557C198.441 60.0655 198.573 60.0489 198.699 60.0071C198.825 59.9652 198.941 59.8988 199.04 59.8118C199.14 59.7247 199.222 59.6188 199.28 59.5Z" fill="#FBFEFF"/>
<path d="M210.06 60.17C210.118 60.0529 210.14 59.9211 210.123 59.7915C210.107 59.6618 210.052 59.5401 209.965 59.4417C209.879 59.3433 209.766 59.2728 209.64 59.239C209.513 59.2052 209.38 59.2097 209.256 59.2519C209.132 59.2941 209.024 59.3721 208.944 59.476C208.865 59.5799 208.818 59.705 208.81 59.8355C208.802 59.966 208.833 60.096 208.899 60.209C208.965 60.3219 209.062 60.4128 209.18 60.47C209.337 60.5462 209.517 60.5574 209.682 60.5013C209.847 60.4451 209.983 60.326 210.06 60.17Z" fill="#FBFEFF"/>
<path d="M213.51 55.14C213.601 54.9336 213.609 54.7004 213.532 54.4884C213.456 54.2763 213.301 54.1016 213.1 54.0003C212.898 53.899 212.666 53.8788 212.45 53.9439C212.234 54.009 212.052 54.1543 211.94 54.35C211.881 54.4538 211.843 54.5685 211.83 54.6872C211.816 54.8059 211.827 54.9261 211.862 55.0405C211.896 55.1549 211.953 55.261 212.03 55.3525C212.107 55.444 212.202 55.5188 212.309 55.5725C212.415 55.6262 212.532 55.6576 212.651 55.6648C212.77 55.672 212.89 55.6549 213.002 55.6144C213.115 55.5739 213.218 55.511 213.305 55.4295C213.392 55.3479 213.462 55.2494 213.51 55.14Z" fill="#FBFEFF"/>
</g>
<g opacity="0.24">
<g opacity="0.75">
<g opacity="0.25">
<path d="M190.47 52.05L165.61 59.37L165.6 59.34L190.46 52.02L190.47 52.05Z" fill="white"/>
<path d="M228.69 36.26L190.45 52.06L191.05 4.94L228.69 36.26ZM190.45 52L228.58 36.24L191.08 5L190.45 52Z" fill="white"/>
<path d="M190.52 52L165.65 59.33L140.05 36H140.12L190.52 52ZM165.61 59.3L190.45 52L140.22 36L165.61 59.3Z" fill="white"/>
<path d="M190.45 52.06L140.07 36.06L191.07 4.96002L190.45 52.06ZM140.13 36.06L190.45 52L191.05 5.00002L140.13 36.06Z" fill="white"/>
<path d="M141.55 35.91C141.575 36.1942 141.515 36.4793 141.377 36.7292C141.24 36.9792 141.031 37.1826 140.778 37.3139C140.525 37.4451 140.238 37.4982 139.955 37.4664C139.671 37.4346 139.404 37.3193 139.186 37.1352C138.968 36.9511 138.81 36.7064 138.731 36.4322C138.653 36.1581 138.657 35.8667 138.744 35.5951C138.832 35.3236 138.997 35.084 139.221 34.9068C139.445 34.7297 139.716 34.6229 140 34.6C140.188 34.5836 140.377 34.6045 140.557 34.6615C140.737 34.7186 140.904 34.8106 141.048 34.9324C141.192 35.0542 141.31 35.2032 141.397 35.371C141.483 35.5388 141.535 35.722 141.55 35.91Z" fill="white"/>
<path d="M167.04 59.24C167.068 59.62 166.945 59.9956 166.698 60.2856C166.451 60.5757 166.1 60.7568 165.72 60.79C165.436 60.8128 165.152 60.751 164.903 60.6122C164.654 60.4734 164.452 60.264 164.323 60.0104C164.193 59.7568 164.141 59.4704 164.174 59.1875C164.207 58.9046 164.324 58.6379 164.508 58.421C164.693 58.2041 164.938 58.0469 165.212 57.9692C165.486 57.8916 165.777 57.8969 166.048 57.9845C166.319 58.0722 166.558 58.2383 166.734 58.4618C166.911 58.6852 167.017 58.9561 167.04 59.24Z" fill="white"/>
<path d="M191.9 51.91C191.925 52.1937 191.865 52.4783 191.727 52.7279C191.59 52.9775 191.382 53.1808 191.13 53.3122C190.877 53.4436 190.591 53.497 190.308 53.4659C190.025 53.4348 189.757 53.3204 189.539 53.1373C189.321 52.9542 189.162 52.7105 189.083 52.4371C189.003 52.1637 189.006 51.8728 189.092 51.6012C189.178 51.3297 189.342 51.0896 189.564 50.9114C189.786 50.7332 190.056 50.6248 190.34 50.6C190.72 50.5694 191.097 50.6897 191.389 50.9349C191.681 51.1801 191.864 51.5304 191.9 51.91Z" fill="white"/>
<path d="M191.98 4.87001C191.992 4.99117 191.98 5.11357 191.945 5.22997C191.909 5.34638 191.85 5.45441 191.772 5.54766C191.693 5.64092 191.597 5.7175 191.488 5.77287C191.38 5.82824 191.261 5.86127 191.14 5.87001C190.959 5.88506 190.778 5.84618 190.619 5.75827C190.46 5.67036 190.33 5.53735 190.247 5.37601C190.163 5.21467 190.129 5.03222 190.149 4.85167C190.169 4.67112 190.242 4.50054 190.359 4.36144C190.476 4.22234 190.632 4.12094 190.806 4.07003C190.98 4.01912 191.166 4.02099 191.339 4.07538C191.513 4.12977 191.666 4.23426 191.78 4.37567C191.894 4.51709 191.964 4.68909 191.98 4.87001Z" fill="white"/>
</g>
<path d="M229.89 36.15C229.911 36.4024 229.856 36.6552 229.734 36.8767C229.611 37.0981 229.425 37.2781 229.2 37.394C228.975 37.5098 228.72 37.5562 228.469 37.5274C228.217 37.4986 227.98 37.3958 227.787 37.2321C227.593 37.0683 227.453 36.851 227.384 36.6075C227.314 36.364 227.318 36.1054 227.396 35.8643C227.473 35.6232 227.62 35.4105 227.819 35.2531C228.017 35.0957 228.258 35.0007 228.51 34.98C228.848 34.9523 229.183 35.06 229.442 35.2794C229.701 35.4988 229.862 35.8119 229.89 36.15Z" fill="white"/>
</g>
<g opacity="0.75">
<path d="M199.63 16.72L209.24 19.72L197.45 50L199.63 16.72ZM199.63 16.72L197.49 49.77L209.2 19.77L199.63 16.72Z" fill="#FBFEFF"/>
<path d="M197.5 49.89L209.25 19.74L219.01 44.23L197.5 49.89ZM197.5 49.89L218.96 44.24L209.25 19.8L197.5 49.89Z" fill="#FBFEFF"/>
<path d="M165.38 13.52L198.63 11.33L199.63 16.75L165.38 13.52ZM165.61 13.52L199.61 16.66L198.61 11.28L165.61 13.52Z" fill="#FBFEFF"/>
<path d="M165.37 13.51L199.68 16.74L197.53 49.91L165.37 13.51ZM165.43 13.51L197.45 49.84L199.59 16.73L165.43 13.51Z" fill="#FBFEFF"/>
</g>
</g>
<path d="M205.03 33C204.973 32.8157 204.99 32.6163 205.078 32.4444C205.166 32.2726 205.317 32.1418 205.5 32.08C205.637 32.0356 205.785 32.033 205.924 32.0724C206.063 32.1118 206.187 32.1915 206.28 32.3014C206.374 32.4113 206.433 32.5464 206.449 32.6898C206.466 32.8331 206.44 32.9782 206.374 33.1068C206.309 33.2353 206.207 33.3415 206.081 33.4119C205.955 33.4823 205.81 33.5138 205.667 33.5024C205.523 33.491 205.385 33.4371 205.272 33.3477C205.159 33.2583 205.075 33.1373 205.03 33Z" fill="#FBFEFF"/>
<path d="M206.25 34.38C206.561 34.2768 206.835 34.0837 207.037 33.825C207.239 33.5664 207.359 33.2537 207.383 32.9266C207.407 32.5994 207.334 32.2725 207.173 31.987C207.011 31.7014 206.769 31.4702 206.476 31.3224C206.183 31.1746 205.853 31.1168 205.527 31.1564C205.202 31.1961 204.895 31.3313 204.646 31.545C204.397 31.7587 204.217 32.0414 204.129 32.3573C204.041 32.6732 204.048 33.0082 204.15 33.32C204.218 33.5278 204.326 33.7201 204.469 33.8859C204.611 34.0517 204.785 34.1877 204.98 34.2862C205.175 34.3847 205.388 34.4437 205.605 34.4598C205.823 34.4759 206.043 34.4488 206.25 34.38ZM205.34 31.65C205.567 31.5752 205.811 31.5694 206.042 31.6333C206.273 31.6973 206.479 31.8281 206.635 32.0093C206.791 32.1905 206.89 32.414 206.919 32.6514C206.949 32.8888 206.907 33.1296 206.799 33.3432C206.692 33.5569 206.523 33.7339 206.315 33.8519C206.107 33.9699 205.869 34.0235 205.63 34.0061C205.392 33.9886 205.164 33.9008 204.975 33.7538C204.786 33.6068 204.645 33.4071 204.57 33.18C204.472 32.875 204.497 32.5435 204.641 32.2572C204.785 31.9709 205.036 31.7528 205.34 31.65Z" fill="#FBFEFF"/>
<path d="M212.31 23.37C212.592 23.37 212.82 23.1417 212.82 22.86C212.82 22.5783 212.592 22.35 212.31 22.35C212.028 22.35 211.8 22.5783 211.8 22.86C211.8 23.1417 212.028 23.37 212.31 23.37Z" fill="#FBFEFF"/>
<path d="M212.67 24C212.887 23.9274 213.078 23.7922 213.219 23.6112C213.359 23.4303 213.443 23.2117 213.46 22.9832C213.476 22.7547 213.425 22.5264 213.311 22.3272C213.198 22.1279 213.029 21.9666 212.824 21.8636C212.62 21.7606 212.389 21.7205 212.162 21.7483C211.934 21.7762 211.72 21.8707 211.546 22.0201C211.373 22.1695 211.247 22.3669 211.185 22.5876C211.124 22.8083 211.129 23.0422 211.2 23.26C211.248 23.4054 211.323 23.54 211.423 23.656C211.523 23.7719 211.644 23.8671 211.781 23.9358C211.918 24.0046 212.067 24.0457 212.219 24.0567C212.372 24.0677 212.525 24.0485 212.67 24ZM212.04 22.08C212.252 22.0232 212.478 22.0495 212.671 22.1536C212.864 22.2578 213.01 22.4319 213.079 22.6402C213.148 22.8485 213.135 23.0754 213.042 23.2743C212.949 23.4732 212.784 23.6291 212.58 23.71C212.368 23.7669 212.142 23.7405 211.949 23.6364C211.756 23.5322 211.61 23.3582 211.541 23.1498C211.472 22.9415 211.485 22.7146 211.578 22.5157C211.671 22.3168 211.836 22.161 212.04 22.08Z" fill="#FBFEFF"/>
<path d="M222.76 50.66C222.707 50.5074 222.701 50.3423 222.743 50.1862C222.784 50.0301 222.872 49.89 222.994 49.7839C223.115 49.6778 223.266 49.6105 223.426 49.5908C223.587 49.5711 223.749 49.5998 223.893 49.6732C224.037 49.7466 224.156 49.8613 224.234 50.0027C224.312 50.1441 224.346 50.3057 224.332 50.4666C224.318 50.6276 224.256 50.7805 224.154 50.9059C224.052 51.0312 223.915 51.1232 223.76 51.17C223.56 51.2306 223.344 51.2114 223.157 51.1163C222.971 51.0213 222.829 50.8577 222.76 50.66Z" fill="#FBFEFF"/>
<path d="M224.11 52.15C224.455 52.0349 224.758 51.8203 224.981 51.5331C225.204 51.2459 225.337 50.899 225.363 50.5364C225.389 50.1737 225.307 49.8114 225.127 49.4953C224.948 49.1792 224.678 48.9234 224.353 48.7602C224.029 48.5971 223.662 48.5338 223.302 48.5785C222.941 48.6232 222.601 48.7738 222.326 49.0113C222.051 49.2488 221.852 49.5625 221.755 49.9129C221.657 50.2633 221.666 50.6346 221.78 50.98C221.856 51.2101 221.976 51.423 222.134 51.6064C222.293 51.7898 222.485 51.9402 222.702 52.0489C222.918 52.1576 223.154 52.2225 223.396 52.2399C223.638 52.2572 223.88 52.2267 224.11 52.15ZM223.11 49.15C223.363 49.0669 223.636 49.0607 223.893 49.1323C224.15 49.2038 224.38 49.3499 224.554 49.552C224.728 49.7541 224.838 50.0032 224.871 50.268C224.903 50.5327 224.857 50.8011 224.737 51.0394C224.617 51.2776 224.429 51.4751 224.197 51.6068C223.965 51.7385 223.7 51.7985 223.434 51.7793C223.168 51.7601 222.913 51.6626 222.702 51.499C222.492 51.3353 222.334 51.113 222.25 50.86C222.189 50.6895 222.163 50.5084 222.174 50.3276C222.184 50.1468 222.231 49.97 222.311 49.8077C222.391 49.6453 222.503 49.5008 222.641 49.3826C222.778 49.2645 222.938 49.1752 223.11 49.12V49.15Z" fill="#FBFEFF"/>
<path d="M65.45 52.05C69.86 55.05 73.45 61.8 73.45 67.12V81.62L8.01006 37.49C3.61006 34.49 0.0100555 27.73 0.0100555 22.42V7.91L65.45 52.05Z" fill="white"/>
<path d="M26.45 58C28.4046 59.4868 30.0138 61.3795 31.1669 63.5477C32.3201 65.7159 32.9899 68.1082 33.1301 70.56V82.13L6.63994 64.27C4.68413 62.7821 3.07416 60.8879 1.92094 58.7178C0.76773 56.5478 0.0987567 54.1535 -0.0399933 51.7V40.14L26.45 58Z" fill="white"/>
<path d="M66.7699 25.27C68.7245 26.7568 70.3338 28.6495 71.487 30.8177C72.6401 32.9859 73.3098 35.3782 73.45 37.83V49.4L46.96 31.53C45.0091 30.0464 43.4022 28.1586 42.2492 25.9959C41.0962 23.8331 40.4244 21.4466 40.28 19V7.40002L66.7699 25.27Z" fill="white"/>
<path d="M109.79 80.64V57C109.79 53.37 109 50.62 107.41 48.77C105.82 46.92 103.41 46 100.3 46C99.1116 45.9591 97.9286 46.1797 96.8348 46.6463C95.741 47.1128 94.7631 47.8139 93.9701 48.7C92.2816 50.6653 91.4086 53.2019 91.53 55.79C91.3966 58.4343 92.3172 61.0235 94.0901 62.99C95.0027 63.904 96.0978 64.6152 97.3041 65.077C98.5103 65.5388 99.8004 65.7409 101.09 65.67C101.924 65.6545 102.755 65.5573 103.57 65.38C104.51 65.18 105.75 64.84 107.27 64.38V80.54C106.01 80.8 104.81 81 103.67 81.13C102.618 81.2533 101.56 81.3167 100.5 81.32C93.3001 81.32 87.36 78.92 82.68 74.12C78 69.32 75.6667 63.2167 75.68 55.81C75.68 48.41 78.0134 42.3067 82.68 37.5C87.3467 32.6933 93.2868 30.29 100.5 30.29C105.272 30.2313 109.958 31.5583 113.99 34.11C117.982 36.6146 121.137 40.253 123.05 44.56C123.86 46.3492 124.426 48.2396 124.73 50.18C125.14 53.4331 125.311 56.7119 125.24 59.99V80.64H109.79Z" fill="white"/>
<path d="M157.23 80.64V53.13C157.315 51.0655 156.599 49.048 155.23 47.5C154.576 46.7894 153.777 46.2285 152.886 45.8557C151.996 45.4829 151.035 45.307 150.07 45.34C149.101 45.3092 148.137 45.486 147.241 45.8586C146.346 46.2311 145.541 46.7908 144.88 47.5C143.504 49.0436 142.786 51.0642 142.88 53.13V80.64H127.45V55.64C127.45 47.92 129.52 41.7667 133.66 37.18C137.8 32.5933 143.28 30.3067 150.1 30.32C153.722 30.3003 157.296 31.148 160.523 32.792C163.75 34.436 166.537 36.8287 168.65 39.77C170.084 41.7868 171.141 44.0466 171.77 46.44C172.493 49.4516 172.829 52.5433 172.77 55.64V80.64H157.23Z" fill="white"/>
<path d="M234 30.53H224.79V21.32H212.38V30.53H203.17V42.94H212.38V52.15H224.79V42.94H234V30.53Z" fill="#E02521"/>
<path d="M199.79 80.45C196.48 80.5164 193.19 79.9217 190.113 78.701C187.036 77.4802 184.233 75.6578 181.868 73.3404C179.504 71.0231 177.626 68.2573 176.344 65.2051C175.062 62.1529 174.401 58.8756 174.401 55.565C174.401 52.2544 175.062 48.9771 176.344 45.9249C177.626 42.8727 179.504 40.107 181.868 37.7896C184.233 35.4723 187.036 33.6498 190.113 32.4291C193.19 31.2083 196.48 30.6137 199.79 30.68V43.09C197.324 43.09 194.913 43.8214 192.862 45.1916C190.811 46.5618 189.213 48.5094 188.269 50.788C187.325 53.0666 187.078 55.5739 187.56 57.9928C188.041 60.4117 189.228 62.6337 190.972 64.3776C192.716 66.1216 194.938 67.3092 197.357 67.7904C199.776 68.2716 202.283 68.0246 204.562 67.0808C206.841 66.137 208.788 64.5387 210.158 62.488C211.529 60.4373 212.26 58.0264 212.26 55.56H224.67C224.662 62.1571 222.039 68.4818 217.375 73.1476C212.711 77.8134 206.387 80.4394 199.79 80.45Z" fill="white"/>
</svg>
